<?xml version="1.0" encoding="UTF-8"?>
<svg width="130px" height="108px" viewBox="0 0 130 108" version="1.1" xmlns="http://www.w3.org/2000/svg" xmlns:xlink="http://www.w3.org/1999/xlink">
    <title>logo_text_vertical</title>
    <g id="logo_text_vertical" stroke="none" stroke-width="1" fill="none" fill-rule="evenodd">
        <g id="logo" transform="translate(38.170974, 9.600867)" fill="#007C74">
            <g id="LICAEC" transform="translate(26.829026, 29.308224) rotate(-5.000000) translate(-26.829026, -29.308224) translate(2.283572, 2.035496)">
                <path d="M24.1755694,0 C24.2358106,0 24.2846457,0.0488497466 24.2846457,0.109090919 C24.2846457,0.148566479 24.2633168,0.184961509 24.2288766,0.204253812 C22.7003074,1.06050977 20.7055109,1.71236718 18.2444871,2.15982605 C15.5913564,2.64221345 12.8833547,2.79850364 10.1204819,2.6286966 L10.1204819,42.0219604 C10.1204839,44.7689395 12.1632582,47.0873103 14.8883849,47.4331125 L17.5795215,47.777793 L20.1232618,48.1101528 L22.5196058,48.4301919 L25.2006553,48.7979755 L27.2727273,49.0909091 C30.9102152,49.6129006 37.8160042,50.1781464 41.4446399,50.7866463 C43.1881987,51.0790281 44.9653281,50.5082448 46.2125456,49.2552751 L48.6248913,46.8318034 C48.7311526,46.725052 48.9038335,46.7246547 49.0105849,46.830916 C49.0620029,46.8820979 49.0909091,46.9516573 49.0909091,47.0242065 L49.0909091,51.8181818 C49.0909091,53.324413 47.8698675,54.5454545 46.3636364,54.5454545 L5.45454545,54.5454545 C2.44208318,54.5454545 -4.4408921e-16,52.1033714 -4.4408921e-16,49.0909091 L-4.4408921e-16,5.06024096 C-4.4408921e-16,2.26554705 2.26554705,0 5.06024096,0 L24.1755694,0 Z M28.2644628,9.27272727 L28.2644628,39.8181818 L16.3636364,24.5454545 L28.2644628,9.27272727 Z M30.6446281,9.27272727 L30.6446281,23.1570248 L42.5454545,23.1570248 L30.6446281,9.27272727 Z M30.6446281,25.9338843 L42.5454545,39.8181818 L30.6446281,39.8181818 L30.6446281,25.9338843 Z M32.4297521,30.7933884 L32.4297521,37.7355372 L38.3801653,37.7355372 L32.4297521,30.7933884 Z" id="Shape-Copy"></path>
            </g>
        </g>
        <g id="text" transform="translate(20.000000, 83.000000)" fill="#007C74" fill-rule="nonzero">
            <path d="M0,15.3195425 L0,0.278537136 C0,0.124705324 0.124705324,6.30606678e-14 0.278537136,6.30606678e-14 L3.61978478,6.30606678e-14 C3.7736166,6.30606678e-14 3.89832192,0.124705324 3.89832192,0.278537136 L3.89832192,12.5341892 C3.89832192,12.688021 4.02302724,12.8127264 4.17685905,12.8127264 L10.8617503,12.8127264 C11.0155821,12.8127264 11.1402875,12.9374317 11.1402875,13.0912635 L11.1402875,15.3195425 C11.1402875,15.4733743 11.0155821,15.5980796 10.8617503,15.5980796 L0.278537136,15.5980796 C0.124705324,15.5980796 0,15.4733743 0,15.3195425 Z M12.8115103,15.3195425 L12.8115103,0.278537136 C12.8115103,0.124705324 12.9362156,0 13.0900474,0 L16.432493,0 C16.5863249,0 16.7110302,0.124705324 16.7110302,0.278537136 L16.7110302,15.3195425 C16.7110302,15.4733743 16.5863249,15.5980796 16.432493,15.5980796 L13.0900474,15.5980796 C12.9362156,15.5980796 12.8115103,15.4733743 12.8115103,15.3195425 Z M26.9517265,15.5980796 C24.1587418,15.5980796 22.0309502,14.8526678 20.5683517,13.4231224 C19.1057532,11.993577 18.382253,10.5633352 18.382253,8.01824854 C18.382253,5.35747612 19.0892267,3.57845943 20.5187721,2.1241242 C21.9208263,0.697756952 24.0024777,0.026051257 26.7637265,0.000743925212 L26.9269367,1.27009514e-13 C27.9020024,1.27009514e-13 28.7737772,0.0169907653 29.5422612,0.165729596 C30.3107451,0.314468427 31.0503076,0.512786868 31.7609487,0.760684919 L31.7609487,4.25604744 C30.32314,3.66109212 28.8109619,3.36361446 27.2244144,3.36361446 C25.5717607,3.36361446 24.3611919,3.76025134 23.5927079,4.5535251 C22.824224,5.34679887 22.439982,6.31601525 22.439982,8.01824854 C22.439982,9.63784914 22.8448822,10.2706855 23.6546825,11.0309062 C24.4644828,11.7911269 25.6709199,12.1712372 27.273994,12.1712372 C28.0507412,12.1712372 28.8192252,12.1009995 29.5794459,11.9605239 C30.3396666,11.8200483 31.0750975,11.6010717 31.7857385,11.3035941 L31.7857385,14.8237464 C31.091624,15.0551179 30.3561931,15.2369098 29.5794459,15.3691221 C28.8026986,15.5013344 27.9267922,15.5980796 26.9517265,15.5980796 Z M36.3071075,7.70056206 L38.8955233,5.1121462 C38.9499111,5.05775844 39.0380911,5.05775844 39.0924788,5.1121462 L41.6808947,7.70056206 C41.7352825,7.75494982 41.7352825,7.8431298 41.6808947,7.89751756 L39.0924788,10.4859334 C39.0380911,10.5403212 38.9499111,10.5403212 38.8955233,10.4859334 L36.3071075,7.89751756 C36.2527197,7.8431298 36.2527197,7.75494982 36.3071075,7.70056206 Z M45.2708033,15.2179114 L51.1652659,0.176906044 C51.2070832,0.0702000585 51.3099923,6.30606678e-14 51.4245997,6.30606678e-14 L55.3568153,6.30606678e-14 C55.4720193,6.30606678e-14 55.5753355,0.0709225367 55.6167407,0.178428706 L61.4096765,15.2194341 C61.4649648,15.3629869 61.3934123,15.5241796 61.2498595,15.5794679 C61.2179171,15.5917703 61.1839806,15.5980796 61.149751,15.5980796 L57.664986,15.5980796 C57.553718,15.5980796 57.4531249,15.5318592 57.409138,15.4296548 L56.0438163,12.2573052 L50.7140082,12.2573052 L49.3729067,15.4280466 C49.3293147,15.5311103 49.228276,15.5980796 49.1163725,15.5980796 L45.5301372,15.5980796 C45.3763054,15.5980796 45.2516,15.4733743 45.2516,15.3195425 C45.2516,15.2847637 45.2581134,15.2502925 45.2708033,15.2179114 Z M51.2593839,9.30731841 L55.4984405,9.30731841 L53.3665173,3.75440206 L51.2593839,9.30731841 Z M63.2267319,15.3195425 L63.2267319,0.278537136 C63.2267319,0.124705324 63.3514373,0 63.5052691,0 L74.646476,0 C74.8003078,0 74.9250131,0.124705324 74.9250131,0.278537136 L74.9250131,2.70738096 C74.9250131,2.86121278 74.8003078,2.9859181 74.646476,2.9859181 L67.3916977,2.9859181 C67.2378659,2.9859181 67.1131606,3.11062342 67.1131606,3.26445524 L67.1131606,6.05400466 C67.1131606,6.20783647 67.2378659,6.33254179 67.3916977,6.33254179 L73.7013995,6.33254179 C73.8552313,6.33254179 73.9799366,6.45724712 73.9799366,6.61107893 L73.9799366,9.1775201 C73.9799366,9.33135191 73.8552313,9.45605724 73.7013995,9.45605724 L67.3916977,9.45605724 C67.2378659,9.45605724 67.1131606,9.58076256 67.1131606,9.73459437 L67.1131606,12.5241438 C67.1131606,12.6779756 67.2378659,12.8026809 67.3916977,12.8026809 L74.646476,12.8026809 C74.8003078,12.8026809 74.9250131,12.9273863 74.9250131,13.0812181 L74.9250131,15.3195425 C74.9250131,15.4733743 74.8003078,15.5980796 74.646476,15.5980796 L63.5052691,15.5980796 C63.3514373,15.5980796 63.2267319,15.4733743 63.2267319,15.3195425 Z M85.165988,15.5980796 C82.3730033,15.5980796 80.2452117,14.8526678 78.7826132,13.4231224 C77.3200147,11.993577 76.5965145,10.5633352 76.5965145,8.01824854 C76.5965145,5.35747612 77.3034881,3.57845943 78.7330336,2.1241242 C80.1350877,0.697756952 82.2167392,0.026051257 84.9779879,0.000743925212 L85.1411982,1.27009514e-13 C86.1162639,1.27009514e-13 86.9880387,0.0169907653 87.7565226,0.165729596 C88.5250066,0.314468427 89.2645691,0.512786868 89.9752102,0.760684919 L89.9752102,4.25604744 C88.5374015,3.66109212 87.0252234,3.36361446 85.4386759,3.36361446 C83.7860222,3.36361446 82.5754534,3.76025134 81.8069694,4.5535251 C81.0384854,5.34679887 80.6542435,6.31601525 80.6542435,8.01824854 C80.6542435,9.63784914 81.0591436,10.2706855 81.8689439,11.0309062 C82.6787442,11.7911269 83.8851814,12.1712372 85.4882555,12.1712372 C86.2650027,12.1712372 87.0334867,12.1009995 87.7937073,11.9605239 C88.553928,11.8200483 89.2893589,11.6010717 90,11.3035941 L90,14.8237464 C89.3058855,15.0551179 88.5704546,15.2369098 87.7937073,15.3691221 C87.0169601,15.5013344 86.1410537,15.5980796 85.165988,15.5980796 Z" id="Shape"></path>
        </g>
    </g>
</svg>